<svg id="visual" viewBox="0 0 960 540" width="960" height="540" xmlns="http://www.w3.org/2000/svg" xmlns:xlink="http://www.w3.org/1999/xlink" version="1.1"><rect x="0" y="0" width="960" height="540" fill="#2b2b2a"></rect><g transform="translate(896.1959274484569 508.428806833392)"><path d="M219.3 -212.8C330.1 -168.3 497.4 -142.8 517.2 -83.4C537 -24 409.2 69.3 324.2 159.6C239.2 249.9 196.9 337.3 117 400.8C37.2 464.2 -80.3 503.7 -148.3 457.3C-216.4 410.9 -235.1 278.7 -270.2 176.2C-305.4 73.6 -357 0.8 -379.8 -101.1C-402.5 -203 -396.3 -334 -328.2 -386C-260.1 -438 -130.1 -411 -37.9 -365.8C54.2 -320.6 108.5 -257.3 219.3 -212.8" fill="#FCAF3C"></path></g></svg>